<svg width="26" height="26" viewBox="0 0 26 26" fill="none" xmlns="http://www.w3.org/2000/svg">
<g clip-path="url(#clip0_6511_102)">
<g clip-path="url(#clip1_6511_102)">
<g clip-path="url(#clip2_6511_102)">
<mask id="mask0_6511_102" style="mask-type:luminance" maskUnits="userSpaceOnUse" x="1" y="0" width="25" height="25">
<path d="M25.4023 0.653015H1.40234V24.653H25.4023V0.653015Z" fill="white"/>
</mask>
<g mask="url(#mask0_6511_102)">
<path d="M22.4023 24.653H20.4023V19.61C20.4015 18.826 20.0897 18.0744 19.5354 17.52C18.981 16.9656 18.2293 16.6538 17.4453 16.653H9.35934C8.57533 16.6538 7.82367 16.9656 7.2693 17.52C6.71493 18.0744 6.40313 18.826 6.40234 19.61V24.653H4.40234V19.61C4.40392 18.2958 4.92669 17.0359 5.85596 16.1066C6.78523 15.1774 8.04514 14.6546 9.35934 14.653H17.4453C18.7595 14.6546 20.0194 15.1774 20.9487 16.1066C21.878 17.0359 22.4007 18.2958 22.4023 19.61V24.653Z" fill="white"/>
<path d="M13.4023 12.653C12.2157 12.653 11.0556 12.3011 10.0689 11.6418C9.08222 10.9825 8.31319 10.0455 7.85906 8.94912C7.40494 7.85276 7.28612 6.64636 7.51763 5.48248C7.74914 4.31859 8.32058 3.24949 9.1597 2.41038C9.99881 1.57126 11.0679 0.999817 12.2318 0.768306C13.3957 0.536795 14.6021 0.655615 15.6984 1.10974C16.7948 1.56387 17.7319 2.3329 18.3912 3.3196C19.0504 4.30629 19.4023 5.46633 19.4023 6.65302C19.4007 8.24383 18.7681 9.76903 17.6432 10.8939C16.5184 12.0188 14.9932 12.6514 13.4023 12.653ZM13.4023 2.65302C12.6112 2.65302 11.8379 2.88761 11.1801 3.32714C10.5223 3.76667 10.0096 4.39138 9.70682 5.12229C9.40407 5.85319 9.32486 6.65746 9.4792 7.43338C9.63354 8.2093 10.0145 8.92204 10.5739 9.48145C11.1333 10.0409 11.8461 10.4218 12.622 10.5762C13.3979 10.7305 14.2022 10.6513 14.9331 10.3485C15.664 10.0458 16.2887 9.5331 16.7282 8.8753C17.1677 8.2175 17.4023 7.44414 17.4023 6.65302C17.4023 5.59215 16.9809 4.57474 16.2308 3.82459C15.4806 3.07445 14.4632 2.65302 13.4023 2.65302Z" fill="white"/>
</g>
</g>
</g>
</g>
<defs>
<clipPath id="clip0_6511_102">
<rect width="25" height="25" fill="white" transform="translate(0.957031 0.286499)"/>
</clipPath>
<clipPath id="clip1_6511_102">
<rect width="25" height="25" fill="white" transform="translate(0.957031 0.286499)"/>
</clipPath>
<clipPath id="clip2_6511_102">
<rect width="25" height="25" fill="white" transform="translate(0.957031 0.286499)"/>
</clipPath>
</defs>
</svg>
