<svg width="117" height="88" viewBox="0 0 117 88" fill="none" xmlns="http://www.w3.org/2000/svg">
<g clip-path="url(#clip0_6511_763)">
<g clip-path="url(#clip1_6511_763)">
<g clip-path="url(#clip2_6511_763)">
<g clip-path="url(#clip3_6511_763)">
<path d="M88.4375 78.8765C93.4081 78.8765 97.4375 74.847 97.4375 69.8765C97.4375 64.9059 93.4081 60.8765 88.4375 60.8765C83.4669 60.8765 79.4375 64.9059 79.4375 69.8765C79.4375 74.847 83.4669 78.8765 88.4375 78.8765Z" fill="#FDC040"/>
<path d="M20.4375 35.8765L21.4375 51.3765L30.4375 60.3765L31.4375 55.8765L32.4375 39.3765V24.3765L30.4375 22.3765L28.4375 21.3765H23.4375L20.4375 23.3765V26.8765V35.8765Z" fill="#FDC040"/>
<path d="M68.1926 32.2435L68.9104 30.8769L66.5536 29.6389L65.8358 31.0062C64.5296 33.4977 62.3646 35.4312 59.7425 36.4494V24.6216C62.8255 23.6691 65.4145 21.5496 66.9567 18.7149L67.5724 17.5752L65.2285 16.31L64.6135 17.4484C63.542 19.4177 61.8204 20.9541 59.7425 21.7947V12.948H57.0794V21.7947C55.0015 20.9541 53.2798 19.4177 52.209 17.4484L51.594 16.31L49.2501 17.5752L49.8652 18.7149C51.4074 21.5496 53.9963 23.6691 57.0794 24.6216V36.4494C54.4573 35.4312 52.2929 33.4977 50.9867 31.0062L50.2689 29.6389L47.9121 30.8769L48.6299 32.2435C50.3977 35.6172 53.4398 38.1463 57.0794 39.2685V51.0963C54.4573 50.0781 52.2929 48.1445 50.9867 45.6531L50.2689 44.2858L47.9121 45.5237L48.6299 46.8904C50.3977 50.2641 53.4398 52.7932 57.0794 53.9154V72.867H59.7425V53.9154C63.3827 52.7932 66.4242 50.2641 68.1926 46.8904L68.9104 45.5237L66.5536 44.2858L65.8358 45.6531C64.5296 48.1445 62.3646 50.0781 59.7425 51.0963V39.2685C63.3827 38.1463 66.4242 35.6172 68.1926 32.2435Z" fill="#3BB77E"/>
<path d="M91.4332 60.2376C92.751 59.0985 93.7406 57.6272 94.2984 55.9764L91.7686 55.1351C91.2758 56.6064 90.3168 57.8768 89.036 58.7526V52.894H86.373V58.7526C85.0941 57.8781 84.1357 56.6103 83.6423 55.1416L81.1125 55.9836C81.6703 57.6337 82.6599 59.105 83.9778 60.2441C79.1496 62.0457 76.3039 67.0454 77.2193 72.1167C78.1347 77.1873 82.5487 80.8763 87.7019 80.8763C92.8551 80.8763 97.2697 77.1873 98.1851 72.1167C99.1005 67.0454 96.2541 62.0457 91.426 60.2441L91.4332 60.2376ZM87.7045 78.1931C83.2925 78.1931 79.7153 74.6166 79.7153 70.2039C79.7153 65.7919 83.2925 62.2147 87.7045 62.2147C92.1171 62.2147 95.6937 65.7919 95.6937 70.2039C95.6898 74.6146 92.1152 78.1886 87.7045 78.1931Z" fill="#3BB77E"/>
<path d="M94.353 2.46103C94.4005 2.08199 94.2828 1.70099 94.0299 1.41492C93.7776 1.12885 93.4142 0.964355 93.0319 0.964355H89.0373C88.3969 0.964355 87.8469 1.42077 87.7285 2.05078L87.7058 2.17236L87.6837 2.05078C87.5653 1.42077 87.0153 0.964355 86.3742 0.964355H82.3796C81.998 0.964355 81.6346 1.12885 81.3816 1.41492C81.1294 1.70099 81.0117 2.08199 81.0592 2.46103L83.7112 23.683V34.5193C83.6188 37.2903 83.217 40.0424 82.5129 42.7243C82.3549 43.4167 82.338 44.1352 82.4635 44.8347C82.866 47.0212 84.5759 48.7338 86.7617 49.1395C87.0699 49.1928 87.3813 49.2201 87.6941 49.2207C89.1082 49.2227 90.4644 48.6622 91.465 47.6636C92.4656 46.6643 93.028 45.3087 93.028 43.8946C93.028 43.6358 93.0091 43.3777 92.9721 43.1222L92.6847 41.2263C92.1106 38.0438 91.7816 34.8222 91.7004 31.5896V23.683L94.353 2.46103ZM83.8887 3.62742H85.269L89.0373 23.7246V27.9078L86.3307 23.172L83.8887 3.62742ZM89.4183 45.9316C88.8084 46.4452 88.0003 46.6584 87.2162 46.5122C86.1363 46.2996 85.293 45.453 85.0856 44.3725C85.0206 44.0194 85.0284 43.6573 85.1084 43.3075C85.8593 40.4351 86.2839 37.4866 86.3742 34.5193V28.6138L89.1004 33.3834C89.2753 36.1466 89.5945 38.8981 90.0561 41.6281L90.3409 43.5097C90.3597 43.6358 90.3695 43.7639 90.3688 43.892C90.3688 44.6787 90.021 45.4257 89.4183 45.9316ZM90.1029 14.9708L89.0178 9.18371L89.0945 9.19867L90.1426 3.62742H91.5235L90.1029 14.9708Z" fill="#3BB77E"/>
<path d="M79.7167 23.6004C79.7316 20.0291 77.6895 16.7679 74.4692 15.2224C73.8412 14.9403 73.5427 14.2173 73.7891 13.5743C75.2683 9.64338 73.9361 5.20862 70.5351 2.74385C67.1341 0.279084 62.5049 0.393512 59.2301 3.02277C58.7541 3.41222 58.0702 3.41222 57.5949 3.02277C55.6353 1.44092 53.1172 0.722495 50.6173 1.03262C47.7794 1.38176 45.2594 3.01432 43.7796 5.46153C42.3005 7.90809 42.0261 10.8989 43.0358 13.5743C43.2822 14.2173 42.9831 14.9403 42.3551 15.2224C39.7915 16.4668 37.9385 18.8159 37.3261 21.5992C36.713 24.3819 37.4086 27.292 39.2128 29.4981C39.5672 29.9428 39.5672 30.5734 39.2128 31.0188C36.4048 34.4497 36.4048 39.3851 39.2128 42.816C39.5639 43.2821 39.5483 43.9278 39.1758 44.3764C36.9418 47.1415 36.4757 50.9365 37.973 54.16C39.4703 57.3835 42.6711 59.4751 46.2248 59.5518L47.9757 71.8022C48.7195 76.9944 53.1673 80.8505 58.4121 80.8505C63.6577 80.8505 68.1054 76.9944 68.8492 71.8022L70.6001 59.5518C74.1545 59.4751 77.3559 57.3829 78.8533 54.1581C80.3499 50.9326 79.8818 47.137 77.6466 44.3725C77.274 43.9239 77.2584 43.2776 77.6089 42.8121C80.4176 39.3812 80.4176 34.4458 77.6089 31.0142C77.2552 30.5695 77.2552 29.9389 77.6089 29.4941C78.969 27.8304 79.7134 25.7492 79.7167 23.6004ZM75.5517 32.7053C76.5218 33.8944 77.0523 35.3814 77.0536 36.9158C77.0595 38.4521 76.5276 39.9423 75.5504 41.1275C74.3951 42.5696 74.4055 44.6241 75.5758 46.0544C77.1836 48.0498 77.5035 50.7909 76.3982 53.1029C75.293 55.4148 72.9589 56.8868 70.3959 56.8887C70.1385 56.8809 69.881 56.8562 69.6268 56.8159C69.279 56.7678 68.9272 56.8608 68.6477 57.0727C68.3687 57.2853 68.186 57.6 68.1392 57.9472L66.2141 71.4277C65.6569 75.3085 62.3326 78.19 58.4121 78.19C54.4923 78.19 51.1674 75.3085 50.6108 71.4277L48.6922 57.9544C48.5589 57.2866 47.9666 56.8101 47.2859 56.8224C47.2261 56.8224 47.1669 56.8263 47.1078 56.8341C44.9908 57.0695 42.8908 56.2652 41.4728 54.6756C39.2922 52.2472 39.1998 48.594 41.2557 46.0583C42.4259 44.628 42.4363 42.5741 41.281 41.1314C40.2999 39.9462 39.7661 38.4547 39.7707 36.9158C39.7726 35.3814 40.3025 33.8944 41.2726 32.7053C42.4337 31.2808 42.4337 29.236 41.2726 27.8109C39.9846 26.2355 39.4885 24.1576 39.9267 22.1701C40.3643 20.1832 41.688 18.5058 43.5189 17.6183C45.3861 16.7321 46.26 14.5606 45.5259 12.6289C45.1202 11.562 44.9986 10.408 45.1716 9.27994C45.6358 6.3412 47.9809 4.05913 50.932 3.67684C52.7187 3.45058 54.5209 3.96161 55.924 5.09224C57.3803 6.25213 59.4446 6.25213 60.901 5.09224C62.3027 3.95966 64.105 3.44668 65.8929 3.67163C68.8434 4.05588 71.1885 6.336 71.6547 9.27473C71.8263 10.4028 71.7041 11.5562 71.299 12.6231C70.565 14.5554 71.4382 16.7269 73.3054 17.6124C75.1363 18.5006 76.46 20.178 76.8982 22.1649C77.3358 24.1518 76.8397 26.2303 75.5517 27.8057C74.3879 29.2315 74.3879 31.2795 75.5517 32.7053Z" fill="#3BB77E"/>
<path d="M18.719 26.5657L20.9484 75.5938C21.0778 78.541 23.5048 80.8634 26.454 80.8634C29.4038 80.8634 31.8302 78.541 31.9602 75.5938L34.189 26.5657C34.2781 24.7479 33.6136 22.9742 32.3516 21.6629C32.1969 21.5003 32.0161 21.3768 31.8484 21.2318L33.1117 1.04681L30.4486 0.881666L29.2653 19.8586C28.7822 19.7273 28.2861 19.6512 27.7855 19.6311V0.964237H25.1224V19.6311C24.6491 19.6486 24.179 19.7169 23.7207 19.8346L22.4594 0.876465L19.7963 1.05201L21.1278 21.025L21.3131 21.0133C21.0446 21.211 20.791 21.4281 20.5544 21.6629C19.2931 22.9749 18.6293 24.7485 18.719 26.5657ZM22.4821 23.5035C23.2337 22.7116 24.2785 22.2649 25.3701 22.2688H27.5378C28.6294 22.2675 29.6743 22.7135 30.4284 23.5022C31.1833 24.2908 31.5825 25.3545 31.5324 26.4448L30.9323 39.5787H26.454V42.2418H30.8107L29.8413 63.5463H26.454V66.2094H29.7204L29.2998 75.4742C29.2334 76.9982 27.9792 78.199 26.454 78.199C24.9293 78.199 23.6745 76.9982 23.6089 75.4742L22.5822 52.8941H26.454V50.231H22.4594L21.6142 31.5895H26.454V28.9265H21.4926L21.3794 26.4448C21.3255 25.3538 21.7247 24.2895 22.4821 23.5035Z" fill="#3BB77E"/>
<path d="M82.3789 70.2039C82.3782 71.5146 82.8613 72.7792 83.7357 73.7551L85.72 71.9788C85.1277 71.317 84.9047 70.4035 85.1251 69.5433C85.3449 68.6825 85.9795 67.9888 86.8169 67.6929L85.93 65.1814C83.804 65.9362 82.3821 67.9472 82.3789 70.2039Z" fill="#3BB77E"/>
</g>
</g>
</g>
</g>
<defs>
<clipPath id="clip0_6511_763">
<rect width="116" height="87" fill="white" transform="translate(0.4375 0.876465)"/>
</clipPath>
<clipPath id="clip1_6511_763">
<rect x="18.4375" y="0.876465" width="80" height="80" rx="10" fill="white"/>
</clipPath>
<clipPath id="clip2_6511_763">
<rect width="80" height="80" fill="white" transform="translate(18.4375 0.876465)"/>
</clipPath>
<clipPath id="clip3_6511_763">
<rect width="80" height="80" fill="white" transform="translate(18.4375 0.876465)"/>
</clipPath>
</defs>
</svg>
