<svg width="117" height="88" viewBox="0 0 117 88" fill="none" xmlns="http://www.w3.org/2000/svg">
<g clip-path="url(#clip0_6511_735)">
<g clip-path="url(#clip1_6511_735)">
<g clip-path="url(#clip2_6511_735)">
<g clip-path="url(#clip3_6511_735)">
<mask id="mask0_6511_735" style="mask-type:luminance" maskUnits="userSpaceOnUse" x="18" y="0" width="81" height="81">
<path d="M98.4375 0.876465H18.4375V80.8765H98.4375V0.876465Z" fill="white"/>
</mask>
<g mask="url(#mask0_6511_735)">
<path d="M70.9375 51.3765L68.9375 55.8765L70.4375 58.8765V60.3765L70.9375 62.3765C71.6042 62.7098 73.0375 63.3765 73.4375 63.3765C73.8375 63.3765 74.9375 63.7098 75.4375 63.8765C75.4375 64.3765 75.3375 65.4765 74.9375 65.8765C74.5375 66.2765 73.7708 66.3765 73.4375 66.3765C73.1042 67.0432 72.4375 68.4765 72.4375 68.8765C72.4375 69.3765 71.9375 70.8765 71.9375 71.3765C71.9375 71.7765 70.9375 73.5432 70.4375 74.3765L70.9375 78.8765C72.4375 79.0432 75.5375 79.3765 75.9375 79.3765H83.9375C86.6042 78.5432 91.9375 76.7765 91.9375 76.3765C91.9375 75.9765 93.9375 75.2098 94.9375 74.8765L96.9375 70.8765L94.9375 66.3765L89.4375 55.3765L88.4375 54.8765C87.7708 55.0432 86.3375 55.2765 85.9375 54.8765C85.4375 54.3765 83.9375 54.3765 83.9375 53.8765C83.9375 53.3765 82.9375 53.3765 82.9375 52.8765C82.9375 52.3765 82.4375 51.8765 82.4375 51.3765V49.3765C82.4375 48.8765 82.9375 48.3765 82.9375 47.8765C82.9375 47.4765 83.9375 47.0432 84.4375 46.8765V45.3765C84.1042 44.7098 83.4375 43.2765 83.4375 42.8765C83.4375 42.3765 81.9375 41.3765 81.4375 41.3765C80.9375 41.3765 79.4375 40.8765 78.9375 40.8765C78.5375 40.8765 77.1042 41.5432 76.4375 41.8765L74.4375 45.3765L70.9375 51.3765Z" fill="#FDC040"/>
<path d="M50.9375 30.8765L42.4375 30.3765L41.9375 32.3765V36.8765L42.4375 43.8765C42.9375 44.0432 44.1375 44.4765 44.9375 44.8765C45.9375 45.3765 48.9375 44.8765 49.4375 44.8765C49.9375 44.8765 56.4375 44.3765 56.9375 43.8765C57.4375 43.3765 57.9375 42.3765 58.4375 41.8765C58.9375 41.3765 58.9375 39.8765 58.9375 39.3765V35.3765C58.9375 34.3765 58.4375 32.8765 58.4375 32.3765C58.4375 31.9765 57.4375 31.2098 56.9375 30.8765H50.9375Z" fill="#FDC040"/>
<path d="M97.9246 69.0017L90.1245 53.4827C89.9598 53.1551 89.6512 52.9234 89.2907 52.8566C88.9301 52.7899 88.559 52.8959 88.2881 53.1429C87.7373 53.6449 87.0204 53.9215 86.2698 53.9215C84.6112 53.9215 83.2619 52.5715 83.2619 50.9121C83.2619 49.4783 84.2816 48.2371 85.6868 47.9603C86.0462 47.8896 86.3518 47.6549 86.5129 47.326C86.674 46.997 86.672 46.6117 86.5076 46.2844L84.5434 42.3745C83.6008 40.5004 81.7121 39.3362 79.6144 39.336C79.6142 39.336 79.6146 39.336 79.6144 39.336C79.4116 39.336 79.2113 39.3501 79.013 39.3715C78.9616 36.4766 78.887 33.578 78.7881 30.734C78.6889 27.8607 77.8441 25.0543 76.3447 22.618C76.0054 22.0667 75.2836 21.8949 74.7325 22.2343C74.1814 22.5735 74.0095 23.2954 74.3487 23.8465C75.6354 25.9373 76.3606 28.347 76.4458 30.8153C76.5531 33.8955 76.6319 37.0402 76.6829 40.1745C75.8462 40.6987 75.1504 41.449 74.6854 42.3732L68.9521 53.781C66.7325 50.3316 63.6248 47.6558 59.9993 47.6558C53.6755 47.6558 48.9265 55.795 47.7206 61.9836H47.6448C47.0264 58.8101 45.4762 55.1246 43.2597 52.2857C43.2438 50.0527 43.2435 47.8095 43.2571 45.5617C44.4679 45.5858 45.6815 45.6016 46.8984 45.6016C49.939 45.6016 52.992 45.5267 56.0208 45.3776C58.0741 45.2766 59.7406 43.7215 59.9834 41.6801C60.3112 38.9235 60.3112 36.128 59.9834 33.3714C59.7406 31.33 58.0743 29.775 56.0215 29.674C51.9231 29.4725 47.7728 29.4082 43.6643 29.4798C44.2752 24.6687 47.2564 20.5313 51.6903 18.4375H68.3102C69.4757 18.9878 70.5633 19.6947 71.5445 20.5455C71.7662 20.7378 72.0395 20.832 72.3116 20.832C72.6397 20.832 72.9659 20.6952 73.1976 20.428C73.6215 19.9391 73.5689 19.1989 73.0799 18.7748C72.552 18.317 71.996 17.8965 71.4182 17.5109C72.4316 16.7151 73.0846 15.48 73.0846 14.0945C73.0846 12.1057 71.7405 10.4261 69.9135 9.91329V5.76918C69.913 3.07134 67.7183 0.876465 65.0203 0.876465H54.9794C52.2816 0.876465 50.0867 3.07134 50.0867 5.76918V9.9136C48.2595 10.4264 46.9154 12.106 46.9154 14.0948C46.9154 15.4801 47.5681 16.715 48.5812 17.5108C46.812 18.6908 45.2771 20.205 44.0682 21.9814C42.308 24.5679 41.3203 27.5946 41.2121 30.734C40.9922 37.0785 40.8889 43.4918 40.9033 49.8394C39.263 48.4958 37.3958 47.656 35.3659 47.656C32.5165 47.656 29.6332 49.4005 27.2471 52.5682C26.8575 53.0851 26.961 53.8199 27.478 54.2093C27.995 54.5988 28.7297 54.4954 29.1191 53.9784C30.2385 52.4924 32.5385 49.9997 35.3661 49.9997C37.5684 49.9997 39.882 51.5421 41.881 54.3424C43.4638 56.56 44.6779 59.3342 45.2532 61.9838H25.4777C25.777 60.6088 26.2531 59.1839 26.8806 57.7969C27.1474 57.2072 26.8856 56.5129 26.2959 56.2461C25.7064 55.9793 25.012 56.2411 24.7452 56.8308C23.9756 58.5319 23.4128 60.2931 23.0887 61.9836H21.4797C19.8032 61.9836 18.4395 63.3474 18.4395 65.0238C18.4395 66.7001 19.8034 68.064 21.4797 68.064H22.0556C22.2501 69.8593 22.5781 71.6486 22.8989 73.3883C23.1275 74.628 23.3639 75.91 23.5436 77.1594C23.787 78.8465 25.1358 80.1591 26.8242 80.3518C29.8968 80.701 32.6299 80.8757 35.3642 80.8757C38.0944 80.8757 40.8257 80.7017 43.8958 80.3534C44.4562 80.2896 44.9776 80.1015 45.4356 79.8201C46.6315 80.5131 47.979 80.8762 49.382 80.8762H60.0009L59.9979 80.8754C62.7329 80.8756 65.4675 80.701 68.5416 80.3517C69.3557 80.2588 70.0893 79.9037 70.6598 79.3735C73.5592 80.3745 76.5751 80.8665 79.5777 80.8665C85.6846 80.8665 91.7336 78.8379 96.6208 74.9514C98.398 73.5394 98.9465 71.0372 97.9246 69.0017ZM52.4305 5.76918C52.4305 4.3637 53.5739 3.22024 54.9794 3.22024H65.0203C66.4258 3.22024 67.5692 4.3637 67.5692 5.76918V9.75156H52.4305V5.76918ZM51.2586 12.0954H68.7411C69.8437 12.0954 70.7404 12.9923 70.7404 14.0946C70.7404 15.1971 69.8435 16.094 68.7411 16.094H51.2586C50.1561 16.094 49.2592 15.1971 49.2592 14.0946C49.2592 12.9923 50.1562 12.0954 51.2586 12.0954ZM55.906 32.0153C56.8126 32.0598 57.5485 32.7467 57.6557 33.6484C57.9616 36.2214 57.9616 38.8307 57.6557 41.4035C57.5485 42.3053 56.8124 42.9923 55.9054 43.0368C51.7092 43.2434 47.4671 43.3037 43.2763 43.2201C43.3165 39.4193 43.3985 35.6127 43.5222 31.827C47.6385 31.7514 51.7984 31.8134 55.906 32.0153ZM76.7789 43.4264C77.3292 42.3328 78.3888 41.6799 79.6136 41.6799C80.8386 41.6801 81.8989 42.3334 82.4491 43.4273L83.8191 46.1542C82.0772 47.0544 80.9182 48.8741 80.9182 50.9122C80.9182 53.864 83.3188 56.2654 86.2698 56.2654C87.0962 56.2654 87.9003 56.0767 88.6261 55.7203L95.1827 68.7651C95.1757 68.7707 95.1693 68.777 95.1622 68.7826C91.8659 71.4044 87.9243 73.158 83.7637 73.8539C80.013 74.4813 76.1434 74.2419 72.5076 73.1694C72.8154 71.4983 73.1237 69.7842 73.3098 68.064H73.8864C75.5628 68.064 76.9265 66.7002 76.9265 65.0238C76.9265 63.3474 75.5628 61.9836 73.8864 61.9836H72.2776C71.9215 60.1563 71.2566 58.1592 70.3332 56.2514L76.7789 43.4264ZM53.4838 54.3428C55.4829 51.5421 57.7968 49.9997 59.999 49.9997C62.2018 49.9997 64.5158 51.5421 66.5147 54.3428C68.0974 56.5601 69.3113 59.3344 69.8865 61.9839H50.1115C50.6867 59.3347 51.9008 56.5604 53.4838 54.3428ZM20.7832 65.0241C20.7832 64.6401 21.0957 64.3277 21.4797 64.3277H73.8864C74.2704 64.3277 74.5828 64.6401 74.5828 65.0241C74.5828 65.408 74.2704 65.7205 73.8864 65.7205H21.4797C21.0956 65.7204 20.7832 65.408 20.7832 65.0241ZM46.9703 77.9827C47.072 77.7212 47.1476 77.4463 47.1889 77.1593C47.2984 76.391 47.4284 75.4755 47.5643 74.4986C47.5737 74.4324 47.5787 74.3958 47.6826 74.3958C47.7867 74.3958 47.7917 74.4324 47.8009 74.4977C47.937 75.4757 48.067 76.3911 48.1767 77.1607C48.2453 77.6371 48.405 78.0821 48.6336 78.4821C48.0536 78.4044 47.4943 78.2365 46.9703 77.9827ZM68.2763 78.0233C62.3254 78.6996 57.6874 78.7001 51.7347 78.0249C51.0967 77.9522 50.5875 77.4597 50.4967 76.8285C50.3875 76.0624 50.258 75.1497 50.122 74.1735C49.947 72.9244 48.9437 72.052 47.6825 72.0522C46.4212 72.0522 45.4181 72.9245 45.243 74.1745C45.1073 75.1497 44.9777 76.0625 44.8687 76.8272C44.7777 77.4597 44.2685 77.9522 43.631 78.0249C37.6772 78.7001 33.0392 78.6996 27.0894 78.0233C26.4589 77.9515 25.9547 77.4586 25.8633 76.8254C25.677 75.5307 25.4364 74.2255 25.2036 72.9634C24.9062 71.3512 24.603 69.6957 24.4139 68.0642H70.9513C70.7619 69.7001 70.4579 71.3601 70.1599 72.9767C69.928 74.2349 69.6882 75.5357 69.5019 76.8263C69.4107 77.4593 68.9065 77.9515 68.2763 78.0233ZM95.1622 73.117C88.6003 78.3351 79.7477 79.8863 71.799 77.2826C71.8062 77.2419 71.8159 77.2022 71.8218 77.1613C71.9016 76.6083 71.9934 76.0489 72.0896 75.4897C74.5381 76.1869 77.0795 76.5405 79.6255 76.5405C81.1386 76.5405 82.6533 76.416 84.1504 76.1657C88.4801 75.4414 92.5916 73.6683 96.0885 71.0269C96.1335 71.8158 95.8057 72.6058 95.1622 73.117Z" fill="#3BB77E"/>
<path d="M80.7068 68.5943C81.4965 69.7428 82.6862 70.515 84.0566 70.7688C84.3773 70.8282 84.6987 70.8575 85.0177 70.8575C86.063 70.8575 87.0832 70.5428 87.9632 69.9378C89.1118 69.1482 89.884 67.9585 90.1377 66.588C90.3916 65.2175 90.0963 63.8302 89.3068 62.6816C88.5171 61.533 87.3274 60.7608 85.9569 60.5071C84.586 60.2533 83.1991 60.5485 82.0505 61.338C80.9019 62.1277 80.1298 63.3174 79.876 64.6878C79.6219 66.0585 79.9171 67.4458 80.7068 68.5943ZM82.1804 65.1146C82.3202 64.3596 82.7457 63.7042 83.3783 63.2692C83.863 62.936 84.4249 62.7627 85.0007 62.7627C85.1765 62.7627 85.3537 62.7789 85.5301 62.8116C86.2851 62.9514 86.9404 63.3767 87.3755 64.0096C87.8105 64.6422 87.973 65.4064 87.8333 66.1614C87.6935 66.9164 87.268 67.5717 86.6354 68.0067C86.0026 68.4417 85.2382 68.6042 84.4837 68.4646C83.7287 68.3247 83.0733 67.8994 82.6382 67.2666C82.2032 66.6338 82.0405 65.8696 82.1804 65.1146Z" fill="#3BB77E"/>
<path d="M75.7839 61.5651C76.0176 61.6084 76.252 61.6298 76.4847 61.6298C77.2467 61.6298 77.9904 61.4002 78.632 60.9593C79.4693 60.3835 80.0323 59.5162 80.2173 58.5171C80.4025 57.5179 80.1872 56.5065 79.6115 55.669C79.0359 54.8315 78.1684 54.2685 77.1693 54.0835C75.1067 53.7018 73.1178 55.069 72.7359 57.1316C72.3537 59.1943 73.7212 61.1832 75.7839 61.5651ZM75.0403 57.5584C75.1869 56.7665 75.9506 56.2412 76.7425 56.3882C77.1261 56.4593 77.459 56.6754 77.6801 56.997C77.9012 57.3185 77.9837 57.7068 77.9128 58.0904C77.8417 58.474 77.6256 58.8071 77.304 59.028C76.9826 59.2491 76.5947 59.3318 76.2106 59.2607C75.4187 59.1138 74.8937 58.3502 75.0403 57.5584Z" fill="#3BB77E"/>
</g>
</g>
</g>
</g>
</g>
<defs>
<clipPath id="clip0_6511_735">
<rect width="116" height="87" fill="white" transform="translate(0.4375 0.876465)"/>
</clipPath>
<clipPath id="clip1_6511_735">
<rect x="18.4375" y="0.876465" width="80" height="80" rx="10" fill="white"/>
</clipPath>
<clipPath id="clip2_6511_735">
<rect width="80" height="80" fill="white" transform="translate(18.4375 0.876465)"/>
</clipPath>
<clipPath id="clip3_6511_735">
<rect width="80" height="80" fill="white" transform="translate(18.4375 0.876465)"/>
</clipPath>
</defs>
</svg>
