<svg width="117" height="88" viewBox="0 0 117 88" fill="none" xmlns="http://www.w3.org/2000/svg">
<g clip-path="url(#clip0_6511_750)">
<g clip-path="url(#clip1_6511_750)">
<g clip-path="url(#clip2_6511_750)">
<g clip-path="url(#clip3_6511_750)">
<mask id="mask0_6511_750" style="mask-type:luminance" maskUnits="userSpaceOnUse" x="18" y="0" width="81" height="81">
<path d="M98.4375 0.876465H18.4375V80.8765H98.4375V0.876465Z" fill="white"/>
</mask>
<g mask="url(#mask0_6511_750)">
<path d="M43.4375 70.3765L36.4375 71.8765L34.9375 72.8765L33.4375 74.8765L32.4375 76.3765L35.4375 77.3765C36.9375 77.8765 38.9375 78.3765 39.9375 78.8765C40.7375 79.2765 48.6042 79.3765 52.4375 79.3765C69.2375 78.9765 82.1042 67.2098 86.4375 61.3765L92.4375 51.3765L94.9375 41.8765L95.9375 28.3765C95.1042 24.8765 93.4375 17.7765 93.4375 17.3765C93.4375 16.9765 92.4375 15.5432 91.9375 14.8765L88.9375 15.3765L87.9375 18.8765V19.8765C87.7708 20.8765 87.4375 22.9765 87.4375 23.3765C87.4375 23.7765 86.1042 27.2098 85.4375 28.8765L82.9375 35.8765L77.9375 44.3765L70.4375 53.8765L63.4375 60.3765L52.9375 66.3765L43.4375 70.3765Z" fill="#FDC040"/>
<path d="M94.0308 14.5051L91.179 4.38206C90.7853 2.98455 89.5983 1.98092 88.1549 1.82508L85.9863 1.59094C84.99 1.48309 83.9908 1.80555 83.2451 2.47484C82.4992 3.14414 82.0711 4.1029 82.0704 5.10512L82.0654 14.3144C80.8778 18.5493 79.3089 22.6642 77.389 26.6093C76.6159 24.8274 75.6768 23.1104 74.5741 21.4842C73.4525 19.8326 72.2047 18.2941 70.8655 16.9117C68.3005 14.2635 64.3847 13.3592 60.8886 14.6086C58.4464 15.4808 55.9118 16.683 53.3529 18.18C53.2358 14.2334 52.318 10.8719 51.5062 8.63259C50.4647 5.75941 49.0342 3.19025 47.7724 1.92762C45.9976 0.152792 42.8634 0.813487 41.1601 2.51611C39.7253 3.95066 38.9612 6.5378 41.5301 9.10775C42.9426 10.5203 44.1141 13.4513 44.8972 17.4799C42.7593 16.3056 40.6462 15.3398 38.5989 14.6087C35.1048 13.3599 31.1884 14.2638 28.6224 16.9114C27.8298 17.729 27.0629 18.6092 26.3436 19.5271C25.9443 20.0367 26.0337 20.7737 26.5432 21.1729C27.0529 21.5721 27.7896 21.483 28.1889 20.9733C28.8578 20.1198 29.5699 19.3024 30.3058 18.5434C32.2335 16.5542 35.179 15.8765 37.8102 16.8167C40.1538 17.6535 42.5975 18.8169 45.0735 20.2743C47.9542 21.9694 51.5331 21.9694 54.4141 20.2743C56.8894 18.8171 59.3331 17.6538 61.6773 16.8167C64.3096 15.876 67.2549 16.5539 69.1815 18.5432C70.4269 19.829 71.5887 21.2616 72.6341 22.8011C74.0305 24.8607 75.1467 27.0754 75.964 29.3887C72.5581 35.6965 68.2346 41.5183 63.1203 46.6326C55.3885 54.3655 46.0304 60.2962 35.8242 63.971C29.4275 60.0132 24.842 53.8557 22.8857 46.5719C20.8832 39.1156 21.8694 31.3539 25.6631 24.7163C25.9843 24.1542 25.7891 23.438 25.227 23.1168C24.6651 22.7956 23.9489 22.991 23.6275 23.5529C19.5252 30.7307 18.4576 39.1215 20.6218 47.1795C22.5689 54.4293 26.9288 60.6458 33.0092 64.9206C32.3397 65.1313 31.6675 65.3337 30.9916 65.5251C30.9891 65.5258 30.9866 65.5267 30.9841 65.5273L30.9804 65.5284L30.9782 65.5294C30.7451 65.5959 30.536 65.7332 30.3824 65.9262L26.2692 71.0961C25.9022 71.5574 25.9347 72.2193 26.3452 72.6423L30.9858 77.4258C31.1039 77.5476 31.2461 77.6398 31.401 77.7003C31.4047 77.7018 31.4079 77.7043 31.4118 77.7059C36.9613 79.8127 42.8088 80.8765 48.688 80.8765C51.9731 80.8765 55.2686 80.5442 58.5261 79.876C67.849 77.9638 76.35 73.3802 83.11 66.6211C87.9698 61.7613 91.6741 56.07 94.1197 49.7053C94.3519 49.1011 94.0503 48.4229 93.4459 48.1906C92.841 47.9582 92.1631 48.2601 91.9312 48.8644C89.604 54.9206 86.0785 60.337 81.4523 64.9632C75.0179 71.397 66.9271 75.7594 58.0552 77.5793C49.9927 79.2331 41.6933 78.7245 33.937 76.1183L37.3093 72.6421C37.7554 72.1824 37.7497 71.45 37.2971 70.9972L33.5184 67.2173C45.2528 63.5588 56.0266 57.0435 64.7789 48.2898C73.8686 39.2002 80.541 27.9424 84.114 15.6838L92.0969 16.0112C95.4755 25.0761 95.9274 35.1696 93.3595 44.5232C93.188 45.1475 93.5553 45.7926 94.1796 45.964C94.8037 46.1358 95.4489 45.7683 95.6204 45.1439C98.3828 35.0812 97.8174 24.2034 94.0308 14.5051ZM47.5123 18.8283C46.6509 13.2858 45.1976 9.45896 43.1886 7.44984C41.996 6.25677 41.868 5.12404 42.8183 4.17402C43.7804 3.21182 45.4443 2.91468 46.1146 3.58507C47.8365 5.30832 51.0335 11.7171 51.0205 19.0795C49.8544 19.2997 48.6441 19.2172 47.5123 18.8283ZM31.8271 74.9259L28.7454 71.7493L31.3993 68.4138L34.8226 71.8382L31.8271 74.9259ZM84.8109 4.21982C85.0662 3.99099 85.3947 3.88486 85.7347 3.9219L87.9031 4.15605C88.3895 4.20857 88.7896 4.54681 88.9223 5.01791L91.3496 13.634L84.4106 13.3494L84.415 5.10637C84.4153 4.76344 84.5558 4.44865 84.8109 4.21982Z" fill="#3BB77E"/>
<path d="M86.723 18.6631C84.9617 31.2468 78.6763 43.4926 69.0239 53.145C60.9911 61.1776 51.245 66.8612 40.8389 69.5815C40.2124 69.7453 39.8375 70.3859 40.0013 71.0122C40.139 71.5392 40.6143 71.8883 41.1346 71.8883C41.2328 71.8883 41.3325 71.8758 41.4318 71.8498C52.2405 69.0242 62.3549 63.1295 70.682 54.8027C80.6923 44.7924 87.2138 32.0732 89.045 18.9879C89.1347 18.3467 88.6877 17.7542 88.0464 17.6645C87.4057 17.5749 86.8125 18.0218 86.723 18.6631Z" fill="#3BB77E"/>
</g>
</g>
</g>
</g>
</g>
<defs>
<clipPath id="clip0_6511_750">
<rect width="116" height="87" fill="white" transform="translate(0.4375 0.876465)"/>
</clipPath>
<clipPath id="clip1_6511_750">
<rect x="18.4375" y="0.876465" width="80" height="80" rx="10" fill="white"/>
</clipPath>
<clipPath id="clip2_6511_750">
<rect width="80" height="80" fill="white" transform="translate(18.4375 0.876465)"/>
</clipPath>
<clipPath id="clip3_6511_750">
<rect width="80" height="80" fill="white" transform="translate(18.4375 0.876465)"/>
</clipPath>
</defs>
</svg>
