<svg width="21" height="22" viewBox="0 0 21 22" fill="none" xmlns="http://www.w3.org/2000/svg">
<g clip-path="url(#clip0_6511_123)">
<g clip-path="url(#clip1_6511_123)">
<g clip-path="url(#clip2_6511_123)">
<mask id="mask0_6511_123" style="mask-type:luminance" maskUnits="userSpaceOnUse" x="0" y="0" width="21" height="21">
<path d="M20.8574 0.923645H0.857422V20.9236H20.8574V0.923645Z" fill="white"/>
</mask>
<g mask="url(#mask0_6511_123)">
<path d="M14.5244 4.31695C13.5244 3.46945 12.4944 2.59028 11.4519 1.55112L10.8577 0.961121L10.2744 1.55195C8.39775 3.43362 7.51108 6.32278 7.12608 8.05612C6.83139 7.59937 6.61272 7.09786 6.47858 6.57112L6.12608 5.21028L5.10108 6.17362C3.30525 7.85945 2.10775 9.53195 2.10775 12.2103C2.09098 14.1422 2.72018 16.0243 3.89543 17.5577C5.07067 19.091 6.72456 20.1878 8.59442 20.6737C9.15781 20.8107 9.73284 20.8944 10.3119 20.9237C10.493 20.9466 10.6752 20.9585 10.8577 20.9595C10.9535 20.9595 11.0469 20.9512 11.1402 20.9453C13.4103 20.877 15.5645 19.9268 17.1454 18.2962C18.7263 16.6656 19.6096 14.4831 19.6077 12.212C19.6077 8.63362 17.2519 6.63362 14.5244 4.31695ZM11.0244 19.2787C10.941 19.2787 10.8577 19.287 10.7694 19.2862C10.0193 19.2632 9.30757 18.9496 8.78446 18.4116C8.26136 17.8736 7.96789 17.1532 7.96608 16.4028C7.96608 15.3462 8.53275 14.8195 9.81525 13.7278C10.1386 13.4528 10.4902 13.1537 10.8602 12.8112C11.1844 13.1053 11.4994 13.372 11.7902 13.6195C13.0785 14.7128 13.751 15.3337 13.751 16.4003C13.7496 17.1374 13.4665 17.8461 12.9596 18.3812C12.4526 18.9163 11.7603 19.2374 11.0244 19.2787ZM15.2077 17.8028L15.191 17.8145C15.3406 17.3588 15.4171 16.8824 15.4177 16.4028C15.4177 14.5153 14.1794 13.4637 12.8694 12.3512C12.4052 11.9578 11.926 11.5512 11.4477 11.0728L10.8577 10.4837L10.2686 11.0728C9.72858 11.612 9.20025 12.062 8.73441 12.4587C7.42775 13.5703 6.29858 14.5312 6.29858 16.4028C6.30036 16.903 6.38483 17.3994 6.54858 17.872C5.68113 17.2059 4.97939 16.3483 4.49816 15.3662C4.01693 14.3841 3.76923 13.304 3.77442 12.2103C3.76071 10.748 4.3267 9.33972 5.34858 8.29362C5.5246 8.65072 5.73327 8.99078 5.97192 9.30945C6.14622 9.54465 6.38553 9.72371 6.66036 9.82455C6.93519 9.92539 7.23352 9.9436 7.51858 9.87695C7.80857 9.81239 8.07383 9.66567 8.28264 9.45435C8.49146 9.24302 8.63499 8.97602 8.69608 8.68528C9.04501 6.76999 9.79968 4.95151 10.9094 3.35195C11.7885 4.18528 12.6594 4.92278 13.4452 5.59028C16.0552 7.80695 17.9452 9.40862 17.9452 12.2153C17.9472 13.2942 17.7014 14.3591 17.2266 15.3279C16.7518 16.2967 16.0616 17.1434 15.2077 17.8028Z" fill="#3BB77E"/>
</g>
</g>
</g>
</g>
<defs>
<clipPath id="clip0_6511_123">
<rect width="20" height="21" fill="white" transform="translate(0.857422 0.406494)"/>
</clipPath>
<clipPath id="clip1_6511_123">
<rect width="20" height="21" fill="white" transform="translate(0.857422 0.406494)"/>
</clipPath>
<clipPath id="clip2_6511_123">
<rect width="20" height="21" fill="white" transform="translate(0.857422 0.406494)"/>
</clipPath>
</defs>
</svg>
