<svg width="13" height="15" viewBox="0 0 13 15" fill="none" xmlns="http://www.w3.org/2000/svg">
<path d="M6.20813 14.7865L5.78813 14.4598C4.76146 13.5887 3.78146 12.6087 2.84813 11.5198C1.16813 9.55983 0.328125 7.9265 0.328125 6.61983C0.328125 5.56205 0.592569 4.58205 1.12146 3.67983C1.65035 2.77761 2.3659 2.06205 3.26813 1.53317C4.17035 1.00428 5.15035 0.739832 6.20813 0.739832C7.2659 0.739832 8.2459 1.00428 9.14813 1.53317C10.0503 2.06205 10.7659 2.77761 11.2948 3.67983C11.8237 4.58205 12.0881 5.56205 12.0881 6.61983C12.0881 7.9265 11.2481 9.55983 9.56813 11.5198C8.6659 12.5776 7.6859 13.5576 6.62813 14.4598L6.20813 14.7865ZM6.20813 1.99983C5.36813 1.99983 4.59813 2.20983 3.89813 2.62983C3.19813 3.04983 2.63813 3.60983 2.21813 4.30983C1.79813 5.00983 1.58813 5.78761 1.58813 6.64317C1.58813 7.49872 2.16368 8.64205 3.31479 10.0732C4.12368 11.0998 5.08813 12.1109 6.20813 13.1065C7.32813 12.1109 8.29257 11.0998 9.10146 10.0732C10.2526 8.64205 10.8281 7.49872 10.8281 6.64317C10.8281 5.78761 10.6181 5.00983 10.1981 4.30983C9.77813 3.60983 9.21813 3.04983 8.51813 2.62983C7.81813 2.20983 7.04813 1.99983 6.20813 1.99983ZM6.20813 8.95317C5.55479 8.95317 5.00257 8.72761 4.55146 8.2765C4.10035 7.82539 3.87479 7.27317 3.87479 6.61983C3.87479 5.9665 4.10035 5.41428 4.55146 4.96317C5.00257 4.51205 5.55479 4.2865 6.20813 4.2865C6.86146 4.2865 7.41368 4.51205 7.86479 4.96317C8.3159 5.41428 8.54146 5.9665 8.54146 6.61983C8.54146 7.27317 8.3159 7.82539 7.86479 8.2765C7.41368 8.72761 6.86146 8.95317 6.20813 8.95317ZM6.20813 5.45317C5.89701 5.45317 5.62479 5.56983 5.39146 5.80317C5.15813 6.0365 5.04146 6.30872 5.04146 6.61983C5.04146 6.93094 5.15813 7.20317 5.39146 7.4365C5.62479 7.66983 5.89701 7.7865 6.20813 7.7865C6.51924 7.7865 6.79146 7.66983 7.02479 7.4365C7.25813 7.20317 7.37479 6.93094 7.37479 6.61983C7.37479 6.30872 7.25813 6.0365 7.02479 5.80317C6.79146 5.56983 6.51924 5.45317 6.20813 5.45317Z" fill="white"/>
</svg>
