<svg width="181" height="56" viewBox="0 0 181 56" fill="none" xmlns="http://www.w3.org/2000/svg">
<g clip-path="url(#clip0_6511_1083)">
<mask id="mask0_6511_1083" style="mask-type:luminance" maskUnits="userSpaceOnUse" x="0" y="5" width="66" height="51">
<path d="M65.8034 5.02271H0.507812V55.25H65.8034V5.02271Z" fill="white"/>
</mask>
<g mask="url(#mask0_6511_1083)">
<path opacity="0.8" d="M49.434 38.4578C55.6509 39.1017 61.4388 32.4 62.3617 23.4891C63.2847 14.5782 58.9931 6.83249 52.7762 6.18859C46.5593 5.54469 40.7714 12.2464 39.8484 21.1573C38.9255 30.0682 43.2171 37.8139 49.434 38.4578Z" fill="#FDC040"/>
<path d="M40.1178 42.7295C46.0327 40.71 48.4812 32.2001 45.5866 23.7221C42.692 15.244 35.5505 10.0083 29.6356 12.0278C23.7208 14.0472 21.2723 22.5571 24.1669 31.0352C27.0614 39.5132 34.2029 44.7489 40.1178 42.7295Z" fill="#FDC040"/>
<path d="M23.1117 32.6477H63.3529C63.6741 32.7873 64.4128 33.3174 64.7981 34.3219C65.2799 35.5776 66.642 53.9943 43.6212 50.2272C25.5079 50.2272 21.2813 49.6691 21.4419 49.3901C24.786 48.553 25.2045 45.2045 25.6231 42.6932C26.0417 40.1818 23.1117 32.6477 23.1117 32.6477Z" fill="#81B13D"/>
<path d="M53.3432 15.4301C52.8148 15.4301 52.3867 15.8583 52.3867 16.3865V16.5393C52.3867 17.0677 52.8148 17.4958 53.3432 17.4958C53.8716 17.4958 54.2997 17.0677 54.2997 16.5393V16.3865C54.2997 15.8582 53.8716 15.4301 53.3432 15.4301Z" fill="#253D4E"/>
<path d="M55.8276 19.6973C55.2993 19.6973 54.8711 20.1254 54.8711 20.6537V20.8065C54.8711 21.3348 55.2993 21.763 55.8276 21.763C56.356 21.763 56.7841 21.3349 56.7841 20.8065V20.6537C56.7841 20.1254 56.356 19.6973 55.8276 19.6973Z" fill="#253D4E"/>
<path d="M34.8871 18.7991L34.8162 18.6635C34.5718 18.1951 33.9937 18.0136 33.5258 18.2582C33.0575 18.5027 32.8761 19.0804 33.1205 19.5487L33.1913 19.6843C33.3617 20.0112 33.695 20.1985 34.0399 20.1985C34.1891 20.1985 34.3403 20.1635 34.4817 20.0896C34.95 19.8451 35.1315 19.2674 34.8871 18.7991Z" fill="#253D4E"/>
<path d="M39.0628 21.4316L38.992 21.2961C38.7476 20.8277 38.1696 20.6462 37.7016 20.8908C37.2332 21.1353 37.0518 21.713 37.2963 22.1813L37.3671 22.3169C37.5375 22.6439 37.8707 22.8311 38.2157 22.8311C38.3649 22.8311 38.5161 22.7962 38.6575 22.7222C39.1258 22.4777 39.3073 21.8999 39.0628 21.4316Z" fill="#253D4E"/>
<path d="M33.1106 40.4614L30.2656 37.6162C29.892 37.2427 29.2864 37.2426 28.9131 37.6162C28.5394 37.9897 28.5394 38.5953 28.9129 38.9687L31.7579 41.8138C31.9447 42.0007 32.1893 42.094 32.4342 42.094C32.6789 42.094 32.9237 42.0007 33.1105 41.814C33.4841 41.4404 33.4841 40.8348 33.1106 40.4614Z" fill="#253D4E"/>
<path d="M41.563 38.6788C41.2568 38.2486 40.6598 38.1478 40.2292 38.4543L30.3002 45.5232C29.87 45.8295 29.7694 46.4267 30.0758 46.857C30.2623 47.1192 30.5566 47.2588 30.8558 47.2588C31.0475 47.2588 31.2414 47.2012 31.4096 47.0815L41.3385 40.0126C41.7688 39.7063 41.8693 39.1091 41.563 38.6788Z" fill="#253D4E"/>
<path d="M45.0742 40.1215C44.7682 39.6913 44.171 39.5906 43.7404 39.8971L39.9291 42.6105C39.4988 42.917 39.3984 43.5141 39.7047 43.9444C39.8913 44.2066 40.1856 44.3463 40.4846 44.3463C40.6765 44.3463 40.8702 44.2886 41.0386 44.1688L44.8498 41.4554C45.2802 41.1491 45.3806 40.5519 45.0742 40.1215Z" fill="#253D4E"/>
<path d="M65.6227 35.7817C65.3135 35.3532 64.7159 35.2565 64.2873 35.5652L63.9687 35.795C63.97 35.7129 63.9718 35.631 63.9718 35.5488C63.9718 34.6364 63.6168 33.7778 62.9702 33.1295C62.3238 32.4846 61.4652 32.1296 60.5528 32.1296H60.2697C61.3193 30.1014 61.8523 27.6592 61.8523 24.8399C61.8523 19.3108 59.7797 13.2671 56.5722 9.44313C56.2326 9.0383 55.6293 8.98531 55.2247 9.32501C54.82 9.66455 54.7671 10.2679 55.1066 10.6725C58.0424 14.1724 59.9395 19.7336 59.9395 24.8399C59.9395 27.7827 59.3069 30.232 58.0593 32.1296H56.1656L57.007 31.5306C57.4374 31.2243 57.5378 30.627 57.2315 30.1967C56.9253 29.7664 56.3283 29.6657 55.8976 29.9723L52.8675 32.1296H47.1781C47.7514 29.2253 47.1542 25.9807 45.4215 22.6616C44.1811 20.2864 42.4196 17.9882 40.3932 16.0411C42.4803 10.7619 45.9344 7.38477 49.3 7.38477C50.3164 7.38477 51.3407 7.6805 52.3442 8.26409C52.801 8.52933 53.3864 8.37438 53.652 7.91784C53.9174 7.46115 53.7624 6.87566 53.3057 6.61014C52.0063 5.85478 50.6585 5.4718 49.3 5.4718C45.2283 5.4718 41.3131 8.97049 38.8786 14.6928C38.0495 14.0105 37.1902 13.3902 36.3148 12.8496C32.1944 10.3049 28.2927 9.75571 25.3287 11.303C22.5949 12.7318 20.8438 15.8998 20.3977 20.2234C20.3433 20.7489 20.7254 21.2188 21.2508 21.2729C21.7775 21.328 22.2463 20.945 22.3003 20.4197C22.6784 16.7556 24.0685 14.12 26.2142 12.9986C31.4384 10.2712 40.0661 16.5393 43.7257 23.547C45.3534 26.6649 45.8542 29.5481 45.2205 32.1297H34.4966C34.4939 32.1297 34.4914 32.1297 34.4887 32.1297H29.5874L27.9822 30.5245C27.6085 30.1511 27.003 30.1511 26.6295 30.5245C26.2559 30.8981 26.2559 31.5037 26.6295 31.8772L26.8818 32.1296H24.256C23.1906 29.7082 22.4901 26.9276 22.273 24.2302C22.2306 23.7037 21.77 23.31 21.2429 23.3536C20.7164 23.3959 20.3239 23.857 20.3663 24.3836C20.5427 26.5757 20.9951 28.7568 21.6935 30.8153C18.9674 28.4922 15.4066 27.2438 11.7404 27.443C11.3987 27.4616 11.0928 27.6614 10.9387 27.9669C9.50028 30.815 9.09587 34.0298 9.6924 37.0742C9.69801 37.1666 9.71626 37.2552 9.74615 37.3384C9.93358 38.2071 10.204 39.0601 10.5549 39.8856C6.46093 40.5206 2.82541 42.9337 0.646288 46.5282C0.468892 46.8208 0.461496 47.1859 0.626648 47.4857C2.16786 50.2828 4.5972 52.4317 7.45121 53.6562C7.52735 53.7008 7.6068 53.7346 7.68854 53.7563C9.26472 54.3989 10.9643 54.762 12.7122 54.7981C12.8079 54.8001 12.9027 54.801 12.9982 54.801C13.6785 54.801 14.3526 54.7496 15.0166 54.6531C15.0791 54.6494 15.1412 54.6413 15.2015 54.6257C18.0128 54.1784 20.6265 52.8875 22.6899 50.9478C22.7367 50.9548 22.7841 50.9597 22.8329 50.9597H27.1248C27.6531 50.9597 28.0813 50.5316 28.0813 50.0032C28.0813 49.4749 27.6531 49.0467 27.1248 49.0467H24.3785C24.6295 48.7065 24.8673 48.3544 25.0887 47.989C25.0955 47.9778 25.101 47.9661 25.1072 47.9548C25.1129 47.9444 25.1199 47.9351 25.1252 47.9243C27.3531 43.5107 27.1009 38.2172 24.4832 34.0425H28.7948L31.3989 36.6466C31.5856 36.8333 31.8305 36.9267 32.0753 36.9267C32.32 36.9267 32.5648 36.8333 32.7517 36.6466C33.1252 36.2729 33.1252 35.6675 32.7517 35.2939L31.5003 34.0425H34.0965L37.6475 37.5935C37.8343 37.7803 38.0792 37.8736 38.3239 37.8736C38.5686 37.8736 38.8135 37.7803 39.0004 37.5935C39.3739 37.2199 39.3739 36.6143 39.0004 36.2408L36.8022 34.0427H45.939L45.9422 34.0429L45.9454 34.0427H50.1809L48.0927 35.5293C47.6622 35.8356 47.5618 36.4328 47.8681 36.8631C48.0547 37.1254 48.3491 37.265 48.6482 37.265C48.84 37.265 49.0337 37.2073 49.202 37.0875L53.4789 34.0425H58.5577L58.5594 34.0427L58.5615 34.0425H60.5535C60.9558 34.0425 61.3347 34.1993 61.6183 34.482C61.9028 34.7673 62.0595 35.1462 62.0595 35.5487C62.0595 36.1245 62.0231 36.6918 61.9528 37.2489L54.9297 42.3129C54.5013 42.6219 54.4044 43.2197 54.7133 43.6483C54.9004 43.9076 55.193 44.0455 55.49 44.0455C55.6838 44.0455 55.8794 43.9867 56.0487 43.8647L61.269 40.1007C60.2261 43.003 58.2156 45.4475 55.6283 47.0439L44.9617 36.3773C44.588 36.0038 43.9825 36.0038 43.6089 36.3773C43.2353 36.7509 43.2353 37.3564 43.6089 37.73L53.8469 47.968C52.4606 48.5603 50.9556 48.9265 49.3786 49.021L45.2086 44.8513C44.8353 44.4779 44.2296 44.4777 43.8561 44.8514C43.4826 45.225 43.4825 45.8305 43.8562 46.2041L46.6987 49.0464H37.3349L35.8003 47.5119C35.4267 47.1384 34.8211 47.1384 34.4476 47.5119C34.0741 47.8855 34.0741 48.4911 34.4476 48.8646L34.6294 49.0464H31.1097C30.5813 49.0464 30.1532 49.4746 30.1532 50.0029C30.1532 50.5313 30.5813 50.9594 31.1097 50.9594H36.5416L38.6988 53.1167C38.8857 53.3034 39.1305 53.3968 39.3753 53.3968C39.62 53.3968 39.8648 53.3034 40.0517 53.1167C40.4252 52.7431 40.4252 52.1376 40.0517 51.764L39.2471 50.9594H48.5598C50.9711 50.9594 53.2546 50.4022 55.2891 49.4108L56.0925 50.2143C56.2794 50.401 56.5242 50.4943 56.7689 50.4943C57.0137 50.4943 57.2585 50.401 57.4454 50.2143C57.8189 49.8406 57.8189 49.2351 57.4454 48.8615L57.0123 48.4285C60.4608 46.1581 62.9478 42.5421 63.7193 38.3334L65.4063 37.1169C65.8346 36.808 65.9315 36.2103 65.6227 35.7817ZM22.7416 34.867C22.8489 35.0312 22.9504 35.1981 23.0491 35.3663L20.628 40.1705L17.8635 35.9404L19.7982 31.7501C20.9409 32.5966 21.9432 33.6453 22.7416 34.867ZM19.5806 42.0645L14.3075 42.33C13.9521 41.92 13.6214 41.4846 13.3204 41.0239C12.6915 40.0615 12.2116 39.0265 11.881 37.9529L16.8407 37.8719L19.5806 42.0645ZM18.1633 30.7274L16.6287 34.0508L13.5787 29.3837C15.1915 29.5269 16.7487 29.9899 18.1633 30.7274ZM11.9767 30.4291L15.6037 35.9789L11.4563 36.0466C11.1939 34.174 11.3645 32.2471 11.9767 30.4291ZM11.4823 41.6949C11.5593 41.8208 11.638 41.9461 11.719 42.0703C12.144 42.7206 12.6192 43.3278 13.1366 43.8903C13.1743 43.9395 13.2168 43.9846 13.2631 44.0255C14.1222 44.9355 15.094 45.7224 16.149 46.37L11.1166 46.2665L8.74399 42.2983C9.62259 41.9948 10.5404 41.7907 11.4823 41.6949ZM6.97603 43.0689L8.85991 46.22L3.28325 46.1054C4.31089 44.8502 5.56822 43.8216 6.97603 43.0689ZM7.58983 51.6165C5.89559 50.7767 4.4008 49.5488 3.24537 48.0178L9.87356 48.1541L7.58983 51.6165ZM14.3862 52.8072C13.8471 52.8695 13.3011 52.8965 12.751 52.8856C11.6015 52.8618 10.4761 52.6741 9.40343 52.3413L12.1345 48.2005L17.1418 48.3035L14.3862 52.8072ZM16.9944 52.2097L19.3565 48.3491L22.2599 48.4088C22.3196 48.4143 22.3796 48.4182 22.4394 48.4229C21.0001 50.1702 19.107 51.4754 16.9944 52.2097ZM22.3717 46.4979C20.1524 46.2804 18.0425 45.4575 16.2706 44.1466L20.7922 43.9188L22.4791 46.5001L22.3717 46.4979ZM24.0859 45.4619L21.8374 42.0213L24.0691 37.5928C24.9329 40.128 24.9472 42.9028 24.0859 45.4619Z" fill="#253D4E"/>
<path d="M56.2356 37.4215C55.9265 36.993 55.3287 36.8964 54.9004 37.2052L51.5299 39.6356C51.1014 39.9445 51.0046 40.5422 51.3136 40.9708C51.5005 41.2301 51.7932 41.3679 52.0901 41.3679C52.284 41.3679 52.4796 41.3092 52.6488 41.1871L56.0194 38.7568C56.4477 38.4479 56.5447 37.8501 56.2356 37.4215Z" fill="#253D4E"/>
</g>
<path d="M80.0624 51.0644L80.0533 46.8306L77.9547 50.3344H77.4254L75.3268 46.8853V51.0644H74.1953V44.6772H75.1717L77.7083 48.911L80.1993 44.6772H81.1756L81.1848 51.0644H80.0624ZM87.9655 49.5862H84.7718L84.1419 51.0644H82.9192L85.7931 44.6772H86.9618L89.8448 51.0644H88.6042L87.9655 49.5862ZM87.5728 48.6555L86.3682 45.8634L85.1728 48.6555H87.5728ZM95.749 51.0644L94.4439 49.1939C94.3887 49.2 94.3067 49.203 94.1978 49.203H92.7555V51.0644H91.5693V44.6772H94.1978C94.7512 44.6772 95.2317 44.7684 95.6393 44.9509C96.0529 45.1334 96.3693 45.395 96.5878 45.7356C96.8071 46.0763 96.9168 46.4808 96.9168 46.9492C96.9168 47.4298 96.7979 47.8434 96.561 48.1902C96.3291 48.5369 95.9951 48.7954 95.5573 48.9658L97.0265 51.0644H95.749ZM95.7214 46.9492C95.7214 46.5416 95.5874 46.2284 95.3196 46.0094C95.0517 45.7904 94.6599 45.6809 94.1426 45.6809H92.7555V48.2267H94.1426C94.6599 48.2267 95.0517 48.1172 95.3196 47.8982C95.5874 47.6731 95.7214 47.3568 95.7214 46.9492ZM100.362 45.6809H98.2461V44.6772H103.666V45.6809H101.549V51.0644H100.362V45.6809ZM113.694 51.1648L112.89 50.3892C112.294 50.9002 111.579 51.1557 110.746 51.1557C110.302 51.1557 109.903 51.0827 109.551 50.9367C109.197 50.7907 108.921 50.5899 108.72 50.3344C108.519 50.0728 108.419 49.7778 108.419 49.4494C108.419 49.054 108.534 48.7072 108.766 48.4092C108.997 48.105 109.374 47.8069 109.897 47.5149C109.642 47.2594 109.459 47.0222 109.35 46.8032C109.24 46.5781 109.186 46.347 109.186 46.1097C109.186 45.6596 109.353 45.2977 109.687 45.0239C110.028 44.7441 110.478 44.6042 111.038 44.6042C111.555 44.6042 111.968 44.7319 112.279 44.9874C112.589 45.2368 112.744 45.5775 112.744 46.0094C112.744 46.3379 112.64 46.6299 112.434 46.8853C112.234 47.1408 111.902 47.3993 111.439 47.6609L112.817 48.9749C112.969 48.6768 113.088 48.3179 113.173 47.8982L114.095 48.1993C113.973 48.765 113.781 49.2516 113.519 49.6592L114.323 50.4257L113.694 51.1648ZM111.038 45.4163C110.789 45.4163 110.591 45.4801 110.445 45.6079C110.299 45.7295 110.226 45.8908 110.226 46.0915C110.226 46.2375 110.266 46.3774 110.344 46.5112C110.424 46.639 110.575 46.8154 110.8 47.0405C111.165 46.8397 111.418 46.6663 111.558 46.5204C111.704 46.3683 111.777 46.204 111.777 46.0276C111.777 45.839 111.71 45.69 111.576 45.5805C111.448 45.471 111.269 45.4163 111.038 45.4163ZM110.828 50.225C111.357 50.225 111.819 50.0637 112.215 49.7413L110.527 48.1263C110.162 48.327 109.903 48.5217 109.752 48.7103C109.605 48.8928 109.532 49.0996 109.532 49.3307C109.532 49.5984 109.651 49.8143 109.888 49.9786C110.126 50.1428 110.439 50.225 110.828 50.225ZM124.054 47.7978H125.175V50.3436C124.847 50.6052 124.464 50.8059 124.026 50.9458C123.588 51.0857 123.138 51.1557 122.676 51.1557C122.025 51.1557 121.438 51.0158 120.915 50.7359C120.391 50.4501 119.981 50.0577 119.683 49.5589C119.384 49.06 119.235 48.4974 119.235 47.8708C119.235 47.2442 119.384 46.6816 119.683 46.1827C119.981 45.6839 120.391 45.2946 120.915 45.0148C121.444 44.7289 122.037 44.5859 122.694 44.5859C123.229 44.5859 123.716 44.6742 124.154 44.8505C124.592 45.0269 124.96 45.2855 125.258 45.6261L124.51 46.3561C124.023 45.8695 123.436 45.6261 122.749 45.6261C122.298 45.6261 121.897 45.7204 121.544 45.909C121.197 46.0976 120.924 46.3622 120.723 46.7028C120.529 47.0435 120.431 47.4328 120.431 47.8708C120.431 48.2966 120.529 48.6799 120.723 49.0205C120.924 49.3611 121.197 49.6288 121.544 49.8235C121.897 50.0181 122.296 50.1155 122.739 50.1155C123.238 50.1155 123.676 50.006 124.054 49.787V47.7978ZM131.831 51.0644L130.527 49.1939C130.472 49.2 130.39 49.203 130.28 49.203H128.839V51.0644H127.653V44.6772H130.28C130.834 44.6772 131.315 44.7684 131.723 44.9509C132.136 45.1334 132.453 45.395 132.671 45.7356C132.89 46.0763 133 46.4808 133 46.9492C133 47.4298 132.881 47.8434 132.644 48.1902C132.412 48.5369 132.078 48.7954 131.641 48.9658L133.109 51.0644H131.831ZM131.805 46.9492C131.805 46.5416 131.671 46.2284 131.403 46.0094C131.135 45.7904 130.743 45.6809 130.226 45.6809H128.839V48.2267H130.226C130.743 48.2267 131.135 48.1172 131.403 47.8982C131.671 47.6731 131.805 47.3568 131.805 46.9492ZM138.223 51.1557C137.572 51.1557 136.986 51.0158 136.462 50.7359C135.939 50.4501 135.528 50.0577 135.23 49.5589C134.932 49.054 134.783 48.4913 134.783 47.8708C134.783 47.2503 134.932 46.6907 135.23 46.1919C135.528 45.687 135.939 45.2946 136.462 45.0148C136.986 44.7289 137.572 44.5859 138.223 44.5859C138.874 44.5859 139.461 44.7289 139.984 45.0148C140.507 45.2946 140.918 45.6839 141.216 46.1827C141.514 46.6816 141.663 47.2442 141.663 47.8708C141.663 48.4974 141.514 49.06 141.216 49.5589C140.918 50.0577 140.507 50.4501 139.984 50.7359C139.461 51.0158 138.874 51.1557 138.223 51.1557ZM138.223 50.1155C138.649 50.1155 139.032 50.0212 139.373 49.8326C139.714 49.638 139.981 49.3703 140.176 49.0296C140.37 48.6829 140.468 48.2966 140.468 47.8708C140.468 47.445 140.37 47.0617 140.176 46.7211C139.981 46.3744 139.714 46.1067 139.373 45.9181C139.032 45.7235 138.649 45.6261 138.223 45.6261C137.798 45.6261 137.414 45.7235 137.073 45.9181C136.733 46.1067 136.465 46.3744 136.271 46.7211C136.076 47.0617 135.979 47.445 135.979 47.8708C135.979 48.2966 136.076 48.6829 136.271 49.0296C136.465 49.3703 136.733 49.638 137.073 49.8326C137.414 50.0212 137.798 50.1155 138.223 50.1155ZM146.789 51.1557C146.145 51.1557 145.56 51.0158 145.037 50.7359C144.521 50.4501 144.113 50.0577 143.815 49.5589C143.523 49.06 143.377 48.4974 143.377 47.8708C143.377 47.2442 143.526 46.6816 143.824 46.1827C144.122 45.6839 144.53 45.2946 145.046 45.0148C145.569 44.7289 146.154 44.5859 146.798 44.5859C147.322 44.5859 147.799 44.6772 148.231 44.8597C148.663 45.0422 149.028 45.3068 149.326 45.6535L148.56 46.3744C148.098 45.8755 147.528 45.6261 146.854 45.6261C146.415 45.6261 146.023 45.7235 145.676 45.9181C145.329 46.1067 145.059 46.3713 144.864 46.712C144.67 47.0526 144.572 47.4389 144.572 47.8708C144.572 48.3027 144.67 48.689 144.864 49.0296C145.059 49.3703 145.329 49.638 145.676 49.8326C146.023 50.0212 146.415 50.1155 146.854 50.1155C147.528 50.1155 148.098 49.863 148.56 49.3581L149.326 50.0881C149.028 50.4348 148.66 50.6994 148.222 50.8819C147.79 51.0644 147.312 51.1557 146.789 51.1557ZM156.166 50.0698V51.0644H151.375V44.6772H156.038V45.6718H152.561V47.3324H155.645V48.3088H152.561V50.0698H156.166ZM162.579 51.0644L161.275 49.1939C161.219 49.2 161.137 49.203 161.028 49.203H159.586V51.0644H158.4V44.6772H161.028C161.582 44.6772 162.062 44.7684 162.47 44.9509C162.884 45.1334 163.2 45.395 163.419 45.7356C163.638 46.0763 163.748 46.4808 163.748 46.9492C163.748 47.4298 163.629 47.8434 163.392 48.1902C163.16 48.5369 162.826 48.7954 162.388 48.9658L163.856 51.0644H162.579ZM162.552 46.9492C162.552 46.5416 162.418 46.2284 162.15 46.0094C161.882 45.7904 161.491 45.6809 160.973 45.6809H159.586V48.2267H160.973C161.491 48.2267 161.882 48.1172 162.15 47.8982C162.418 47.6731 162.552 47.3568 162.552 46.9492ZM168.653 48.8106V51.0644H167.467V48.8289L164.958 44.6772H166.226L168.096 47.7887L169.986 44.6772H171.154L168.653 48.8106Z" fill="#253D4E"/>
<path d="M98.979 5.98541C99.7223 5.98541 100.327 6.2332 100.791 6.72878C101.256 7.22435 101.488 7.84382 101.488 8.58719V35.6735C101.488 36.4788 101.209 37.1602 100.652 37.7177C100.125 38.2443 99.4595 38.5076 98.6542 38.5076C98.2515 38.5076 97.833 38.4456 97.3993 38.3217C96.9967 38.1669 96.6869 37.9655 96.4701 37.7177L78.2113 14.5341L79.4192 13.7907V35.9058C79.4192 36.6492 79.1714 37.2686 78.6759 37.7642C78.2113 38.2598 77.5918 38.5076 76.8174 38.5076C76.0741 38.5076 75.4701 38.2598 75.0055 37.7642C74.5409 37.2686 74.3086 36.6492 74.3086 35.9058V8.81949C74.3086 8.01418 74.5719 7.34825 75.0984 6.8217C75.6559 6.26417 76.3374 5.98541 77.1427 5.98541C77.5763 5.98541 78.0254 6.07833 78.49 6.26417C78.9546 6.41904 79.2953 6.66683 79.5121 7.00754L97.2135 29.5872L96.4232 30.1447V8.58719C96.4232 7.84382 96.656 7.22435 97.1206 6.72878C97.5852 6.2332 98.2046 5.98541 98.979 5.98541ZM119.466 38.9722C116.833 38.9722 114.541 38.4301 112.59 37.3461C110.669 36.231 109.183 34.7288 108.13 32.8394C107.107 30.95 106.596 28.8129 106.596 26.4279C106.596 23.6403 107.153 21.2708 108.269 19.3195C109.415 17.3372 110.901 15.8195 112.729 14.7664C114.556 13.7133 116.492 13.1867 118.537 13.1867C120.116 13.1867 121.603 13.512 122.997 14.1624C124.422 14.8129 125.676 15.7111 126.76 16.8571C127.844 17.9722 128.696 19.273 129.315 20.7598C129.966 22.2465 130.291 23.8261 130.291 25.4987C130.26 26.2421 129.966 26.8461 129.408 27.3107C128.851 27.7753 128.2 28.0076 127.457 28.0076H109.709L108.315 23.3615H125.366L124.344 24.2907V23.0363C124.282 22.1381 123.957 21.3328 123.369 20.6204C122.811 19.908 122.099 19.3505 121.231 18.9478C120.395 18.5142 119.497 18.2974 118.537 18.2974C117.607 18.2974 116.74 18.4213 115.935 18.6691C115.13 18.9168 114.432 19.335 113.844 19.9235C113.255 20.512 112.791 21.3018 112.45 22.293C112.109 23.2841 111.939 24.5385 111.939 26.0562C111.939 27.7288 112.28 29.1536 112.961 30.3306C113.674 31.4766 114.572 32.3593 115.656 32.9788C116.771 33.5673 117.948 33.8615 119.187 33.8615C120.333 33.8615 121.246 33.7686 121.928 33.5828C122.609 33.3969 123.152 33.1801 123.554 32.9323C123.988 32.6536 124.375 32.4213 124.715 32.2354C125.273 31.9567 125.8 31.8173 126.295 31.8173C126.976 31.8173 127.534 32.0496 127.968 32.5142C128.432 32.9788 128.665 33.5208 128.665 34.1403C128.665 34.9766 128.231 35.7354 127.364 36.4169C126.559 37.0983 125.428 37.7023 123.972 38.2288C122.516 38.7244 121.015 38.9722 119.466 38.9722ZM133.482 34.6514C133.172 34.2177 133.032 33.6602 133.063 32.9788C133.094 32.2974 133.497 31.7089 134.271 31.2133C134.767 30.9036 135.293 30.7797 135.851 30.8416C136.408 30.8726 136.951 31.1514 137.477 31.6779C138.376 32.5761 139.32 33.2731 140.311 33.7686C141.302 34.2642 142.541 34.512 144.028 34.512C144.492 34.481 145.004 34.4191 145.561 34.3262C146.119 34.2023 146.599 33.9545 147.001 33.5828C147.435 33.1801 147.652 32.5761 147.652 31.7708C147.652 31.0894 147.42 30.5474 146.955 30.1447C146.491 29.7421 145.871 29.4014 145.097 29.1226C144.353 28.8438 143.517 28.5806 142.588 28.3328C141.628 28.054 140.637 27.7443 139.615 27.4036C138.623 27.0629 137.709 26.6292 136.873 26.1027C136.037 25.5452 135.355 24.8173 134.829 23.9191C134.302 23.0208 134.039 21.8903 134.039 20.5275C134.039 18.9788 134.473 17.6624 135.34 16.5783C136.207 15.4943 137.322 14.658 138.685 14.0695C140.079 13.481 141.535 13.1867 143.053 13.1867C144.013 13.1867 145.019 13.3106 146.072 13.5584C147.125 13.7752 148.132 14.1469 149.092 14.6735C150.053 15.1691 150.858 15.835 151.508 16.6713C151.849 17.1359 152.05 17.6934 152.112 18.3438C152.174 18.9943 151.88 19.5828 151.23 20.1093C150.765 20.481 150.223 20.6514 149.603 20.6204C148.984 20.5584 148.473 20.3416 148.07 19.9699C147.544 19.2885 146.831 18.7465 145.933 18.3438C145.066 17.9412 144.059 17.7398 142.913 17.7398C142.448 17.7398 141.938 17.8018 141.38 17.9257C140.853 18.0186 140.389 18.2509 139.986 18.6226C139.584 18.9633 139.382 19.5208 139.382 20.2952C139.382 21.0076 139.615 21.5806 140.079 22.0142C140.544 22.4168 141.163 22.7576 141.938 23.0363C142.743 23.2841 143.594 23.5319 144.492 23.7797C145.422 24.0275 146.367 24.3217 147.327 24.6624C148.287 25.0031 149.169 25.4522 149.975 26.0098C150.78 26.5673 151.43 27.2952 151.926 28.1934C152.422 29.0607 152.669 30.1757 152.669 31.5385C152.669 33.1182 152.205 34.4655 151.276 35.5806C150.346 36.6956 149.185 37.5474 147.792 38.1359C146.398 38.6934 144.973 38.9722 143.517 38.9722C141.69 38.9722 139.862 38.6624 138.035 38.043C136.207 37.3925 134.69 36.262 133.482 34.6514ZM157.596 14.116H168.607C169.35 14.116 169.969 14.3637 170.465 14.8593C170.961 15.3549 171.208 15.9744 171.208 16.7177C171.208 17.4301 170.961 18.0341 170.465 18.5297C169.969 18.9943 169.35 19.2266 168.607 19.2266H157.596C156.853 19.2266 156.233 18.9788 155.737 18.4832C155.242 17.9876 154.994 17.3682 154.994 16.6248C154.994 15.9124 155.242 15.3239 155.737 14.8593C156.233 14.3637 156.853 14.116 157.596 14.116ZM162.567 8.30842C163.372 8.30842 164.022 8.58718 164.518 9.14471C165.045 9.67126 165.308 10.3372 165.308 11.1425V31.8173C165.308 32.2509 165.385 32.6071 165.54 32.8859C165.726 33.1646 165.959 33.366 166.237 33.4899C166.547 33.6138 166.872 33.6757 167.213 33.6757C167.584 33.6757 167.925 33.6138 168.235 33.4899C168.545 33.335 168.901 33.2576 169.304 33.2576C169.737 33.2576 170.124 33.4589 170.465 33.8615C170.837 34.2642 171.022 34.8217 171.022 35.5341C171.022 36.4014 170.543 37.1138 169.583 37.6713C168.653 38.2288 167.646 38.5076 166.562 38.5076C165.912 38.5076 165.184 38.4611 164.379 38.3682C163.605 38.2443 162.861 37.981 162.149 37.5784C161.468 37.1447 160.894 36.4943 160.43 35.627C159.965 34.7598 159.733 33.5673 159.733 32.0496V11.1425C159.733 10.3372 159.996 9.67126 160.522 9.14471C161.08 8.58718 161.761 8.30842 162.567 8.30842Z" fill="white"/>
</g>
<defs>
<clipPath id="clip0_6511_1083">
<rect width="179.981" height="55.25" fill="white" transform="translate(0.507812)"/>
</clipPath>
</defs>
</svg>
