<svg width="37" height="39" viewBox="0 0 37 39" fill="none" xmlns="http://www.w3.org/2000/svg">
<g clip-path="url(#clip0_6511_151)">
<g clip-path="url(#clip1_6511_151)">
<g clip-path="url(#clip2_6511_151)">
<path d="M31.7959 20.5425V18.4065C31.7959 14.8261 30.3736 11.3923 27.8419 8.86055C25.3101 6.32881 21.8764 4.90649 18.2959 4.90649C14.7155 4.90649 11.2817 6.32881 8.75001 8.86055C6.21826 11.3923 4.79595 14.8261 4.79595 18.4065V20.5425C3.22269 21.2352 1.93515 22.4474 1.14888 23.9761C0.362611 25.5048 0.125338 27.2571 0.476783 28.9399C0.828228 30.6226 1.74706 32.1335 3.07945 33.2197C4.41185 34.3059 6.07693 34.9014 7.79595 34.9065H10.7959V19.9065H7.79595V18.4065C7.79595 15.6217 8.90219 12.951 10.8713 10.9819C12.8405 9.01274 15.5112 7.90649 18.2959 7.90649C21.0807 7.90649 23.7514 9.01274 25.7206 10.9819C27.6897 12.951 28.7959 15.6217 28.7959 18.4065V19.9065H25.7959V31.9065H19.7959V34.9065H28.7959C30.515 34.9014 32.18 34.3059 33.5124 33.2197C34.8448 32.1335 35.7637 30.6226 36.1151 28.9399C36.4666 27.2571 36.2293 25.5048 35.443 23.9761C34.6567 22.4474 33.3692 21.2352 31.7959 20.5425ZM7.79595 31.9065C6.60247 31.9065 5.45788 31.4324 4.61397 30.5885C3.77005 29.7446 3.29595 28.6 3.29595 27.4065C3.29595 26.213 3.77005 25.0684 4.61397 24.2245C5.45788 23.3806 6.60247 22.9065 7.79595 22.9065V31.9065ZM28.7959 31.9065V22.9065C29.9894 22.9065 31.134 23.3806 31.9779 24.2245C32.8218 25.0684 33.2959 26.213 33.2959 27.4065C33.2959 28.6 32.8218 29.7446 31.9779 30.5885C31.134 31.4324 29.9894 31.9065 28.7959 31.9065Z" fill="#253D4E"/>
</g>
</g>
</g>
<defs>
<clipPath id="clip0_6511_151">
<rect width="36" height="38" fill="white" transform="translate(0.296875 0.906494)"/>
</clipPath>
<clipPath id="clip1_6511_151">
<rect width="36" height="38" fill="white" transform="translate(0.296875 0.906494)"/>
</clipPath>
<clipPath id="clip2_6511_151">
<rect width="36" height="36" fill="white" transform="translate(0.296875 1.90649)"/>
</clipPath>
</defs>
</svg>
