<svg width="26" height="26" viewBox="0 0 26 26" fill="none" xmlns="http://www.w3.org/2000/svg">
<g clip-path="url(#clip0_6511_78)">
<g clip-path="url(#clip1_6511_78)">
<g clip-path="url(#clip2_6511_78)">
<mask id="mask0_6511_78" style="mask-type:luminance" maskUnits="userSpaceOnUse" x="0" y="0" width="25" height="25">
<path d="M24.8828 0.653015H0.882812V24.653H24.8828V0.653015Z" fill="white"/>
</mask>
<g mask="url(#mask0_6511_78)">
<path d="M18.3817 1.57001C17.2557 1.58752 16.1542 1.90186 15.1885 2.48128C14.2228 3.0607 13.4271 3.88468 12.8817 4.87001C12.3364 3.88468 11.5407 3.0607 10.575 2.48128C9.60934 1.90186 8.50785 1.58752 7.3818 1.57001C5.58674 1.648 3.8955 2.43326 2.67758 3.75424C1.45966 5.07522 0.814043 6.82453 0.881794 8.62001C0.881794 15.395 11.8377 23.22 12.3037 23.552L12.8817 23.961L13.4597 23.552C13.9257 23.222 24.8817 15.395 24.8817 8.62001C24.9495 6.82453 24.3039 5.07522 23.086 3.75424C21.868 2.43326 20.1768 1.648 18.3817 1.57001ZM12.8817 21.499C9.6288 19.069 2.8818 13.099 2.8818 8.62001C2.81344 7.35472 3.24817 6.11374 4.09116 5.16771C4.93416 4.22168 6.11703 3.64736 7.3818 3.57001C8.64657 3.64736 9.82944 4.22168 10.6724 5.16771C11.5154 6.11374 11.9501 7.35472 11.8817 8.62001H13.8817C13.8134 7.35472 14.2481 6.11374 15.0911 5.16771C15.9341 4.22168 17.117 3.64736 18.3817 3.57001C19.6465 3.64736 20.8294 4.22168 21.6724 5.16771C22.5154 6.11374 22.9501 7.35472 22.8817 8.62001C22.8817 13.101 16.1347 19.069 12.8817 21.499Z" fill="white"/>
</g>
</g>
</g>
</g>
<defs>
<clipPath id="clip0_6511_78">
<rect width="25" height="25" fill="white" transform="translate(0.107422 0.286499)"/>
</clipPath>
<clipPath id="clip1_6511_78">
<rect width="25" height="25" fill="white" transform="translate(0.107422 0.286499)"/>
</clipPath>
<clipPath id="clip2_6511_78">
<rect width="25" height="25" fill="white" transform="translate(0.107422 0.286499)"/>
</clipPath>
</defs>
</svg>
